<svg xmlns="http://www.w3.org/2000/svg" width="1200" height="560"><rect width="100%" height="100%" fill="#f8fafc"/><text x="600" y="45" text-anchor="middle" font-size="30" font-family="sans-serif">需求跟踪矩阵 RTM</text><rect x="80" y="100" width="1040" height="65" rx="12" fill="#e0f2fe" stroke="#0284c7"/><g font-family="sans-serif" font-size="19"><text x="150" y="140">需求</text><text x="340" y="140">来源</text><text x="530" y="140">设计</text><text x="725" y="140">实现</text><text x="940" y="140">测试</text></g><g fill="#fff" stroke="#cbd5e1"><rect x="80" y="165" width="1040" height="75"/><rect x="80" y="240" width="1040" height="75"/><rect x="80" y="315" width="1040" height="75"/></g><g font-family="sans-serif" font-size="18"><text x="125" y="210">R-01</text><text x="300" y="210">访谈</text><text x="500" y="210">D-03</text><text x="675" y="210">LoginService</text><text x="920" y="210">TC-01/02</text><text x="125" y="285">R-02</text><text x="300" y="285">法规</text><text x="500" y="285">D-07</text><text x="675" y="285">AuditModule</text><text x="920" y="285">TC-10/11</text><text x="125" y="360">R-03</text><text x="300" y="360">业务</text><text x="500" y="360">D-09</text><text x="675" y="360">OrderService</text><text x="920" y="360">TC-18</text></g><text x="600" y="450" text-anchor="middle" font-size="21" font-family="sans-serif" fill="#166534">正向：需求 → 设计 → 代码 → 测试</text><text x="600" y="495" text-anchor="middle" font-size="21" font-family="sans-serif" fill="#6d28d9">反向：实现 / 测试 → 追溯正式需求来源</text></svg>